<svg width="26" height="26" viewBox="0 0 26 26" fill="none" xmlns="http://www.w3.org/2000/svg">
<path fill-rule="evenodd" clip-rule="evenodd" d="M25.9484 12.9742C25.9484 20.1397 20.1397 25.9484 12.9742 25.9484C5.80875 25.9484 0 20.1397 0 12.9742C0 5.80875 5.80875 0 12.9742 0C20.1397 0 25.9484 5.80875 25.9484 12.9742ZM12.9742 25.7171C20.0119 25.7171 25.7171 20.0119 25.7171 12.9742C25.7171 5.93647 20.0119 0.231269 12.9742 0.231269C5.93647 0.231269 0.231269 5.93647 0.231269 12.9742C0.231269 20.0119 5.93647 25.7171 12.9742 25.7171Z" fill="url(#paint0_angular_5636_149342)"/>
<path fill-rule="evenodd" clip-rule="evenodd" d="M12.9566 1.10095C6.40873 1.10095 1.10059 6.40909 1.10059 12.957C1.10059 19.5049 6.40873 24.8131 12.9566 24.8131C19.5046 24.8131 24.8127 19.5049 24.8127 12.957C24.8127 6.40909 19.5046 1.10095 12.9566 1.10095ZM0.120361 12.957C0.120361 5.86773 5.86736 0.120728 12.9566 0.120728C20.0459 0.120728 25.7929 5.86773 25.7929 12.957C25.7929 20.0463 20.0459 25.7933 12.9566 25.7933C5.86736 25.7933 0.120361 20.0463 0.120361 12.957Z" fill="url(#paint1_angular_5636_149342)"/>
<defs>
<radialGradient id="paint0_angular_5636_149342" cx="0" cy="0" r="1" gradientUnits="userSpaceOnUse" gradientTransform="translate(12.2501 11.707) rotate(29.4537) scale(11.7814)">
<stop stop-color="#4D4D4D"/>
<stop offset="0.105609" stop-color="white"/>
<stop offset="0.182292" stop-color="#585858"/>
<stop offset="0.348958" stop-color="#A6A6A6"/>
<stop offset="0.484375" stop-color="#C3C3C3"/>
<stop offset="0.578125" stop-color="#989898"/>
<stop offset="0.760417" stop-color="#727272"/>
<stop offset="0.817708" stop-color="#ACACAC"/>
<stop offset="0.927083" stop-color="#959595"/>
</radialGradient>
<radialGradient id="paint1_angular_5636_149342" cx="0" cy="0" r="1" gradientUnits="userSpaceOnUse" gradientTransform="translate(12.9566 11.8855) rotate(90) scale(13.4177)">
<stop stop-color="#EFEFEF"/>
<stop offset="0.171875" stop-color="#762FC8"/>
<stop offset="0.380208" stop-color="#2F39F7"/>
<stop offset="0.541667" stop-color="#3483FB"/>
<stop offset="0.651042" stop-color="#94FFCC"/>
<stop offset="0.84375" stop-color="#5CD2F8"/>
<stop offset="0.927083" stop-color="#71F7F7"/>
</radialGradient>
</defs>
</svg>
