<svg width="61" height="20" viewBox="0 0 61 20" fill="none" xmlns="http://www.w3.org/2000/svg">
<path d="M52.1424 11.2903L56.6888 17.7501C57.1749 18.436 57.6038 18.6075 59.1764 18.7505V19.6365H52.8C52.8 19.3793 52.8 18.579 52.2854 17.893L49.4546 13.8342L48.0249 15.2062V17.1212C48.0249 18.3789 48.6254 18.5218 50.1122 18.779V19.6365H41.7915V18.779C43.2784 18.5218 43.8788 18.3789 43.8788 17.1212L43.8788 4.18967C43.8792 3.18623 43.8794 2.62699 41.7915 2.42955V1.62923C43.8216 1.40057 45.7088 0.886074 47.453 0L48.0249 0.543077V13.4626L52.3425 9.40381C53.2289 8.5749 52.8286 8.08899 51.3132 7.94608V7.06H57.5466V7.94608C55.6022 8.08899 54.8302 8.77498 53.8008 9.68964L52.1424 11.2903Z" fill="#101828"/>
<path d="M8.20357 19.6365H0.597656V18.779C1.91296 18.5218 2.48484 18.3789 2.48484 17.1212V10.8615C2.48484 9.83256 2.25609 9.2609 0.597656 9.06082V8.26049C2.48484 7.97466 4.4578 7.48875 6.03045 6.60267L6.60232 7.14575L5.60154 9.54673H6.40217C7.68888 8.08899 8.947 6.80276 11.2345 6.80276C14.294 6.80276 14.9517 9.23231 14.9517 11.2045V17.1212C14.9517 18.3789 15.5235 18.5218 16.8388 18.779V19.6365H9.23294V18.779L9.24262 18.7766C10.2374 18.5209 10.8056 18.3748 10.8056 17.1212V11.6047C10.8056 9.66106 10.1193 9.0894 9.17575 9.0894C8.43231 9.0894 7.48872 9.40381 6.63092 10.5471V17.1212C6.63092 18.3748 7.1991 18.5209 8.19388 18.7766L8.20357 18.779V19.6365Z" fill="#101828"/>
<path fill-rule="evenodd" clip-rule="evenodd" d="M20.5915 13.1482C20.9347 15.8922 22.5359 17.6071 24.9664 17.6071C26.1959 17.6071 27.5112 17.1498 28.0831 16.4067L28.6835 16.8926C27.9973 18.7505 25.9671 19.8938 23.2507 19.8938C19.219 19.8938 16.2739 17.4071 16.2739 13.3769C16.2739 9.20373 19.5336 6.80276 23.1364 6.80276C27.5398 6.80276 29.7415 10.3756 28.5406 13.1482H20.5915ZM24.709 11.9763C25.0807 10.0041 24.5661 7.97466 22.9076 7.97466C21.5637 7.97466 20.5058 9.23231 20.5058 11.9763H24.709Z" fill="#101828"/>
<path fill-rule="evenodd" clip-rule="evenodd" d="M38.0077 17.6071C35.5773 17.6071 33.976 15.8922 33.6329 13.1482H41.582C42.7829 10.3756 40.5812 6.80276 36.1778 6.80276C32.575 6.80276 29.3153 9.20373 29.3153 13.3769C29.3153 17.4071 32.2604 19.8938 36.2921 19.8938C39.0085 19.8938 41.0387 18.7505 41.7249 16.8926L41.1245 16.4067C40.5526 17.1498 39.2373 17.6071 38.0077 17.6071ZM35.949 7.97466C37.6074 7.97466 38.1221 10.0041 37.7504 11.9763H33.5471C33.5471 9.23231 34.6051 7.97466 35.949 7.97466Z" fill="#101828"/>
<path fill-rule="evenodd" clip-rule="evenodd" d="M60.0988 18.6828V19.3568H60.2076V19.0704H60.2715C60.3097 19.0704 60.3388 19.0782 60.3587 19.0937C60.3875 19.1147 60.4254 19.167 60.4725 19.2505L60.5323 19.3568H60.6651L60.5829 19.2248C60.5436 19.1623 60.5104 19.1177 60.4833 19.0912C60.4689 19.0773 60.4498 19.0654 60.426 19.0555C60.4841 19.051 60.5306 19.0306 60.5655 18.994C60.6009 18.9575 60.6186 18.9146 60.6186 18.8654C60.6186 18.8305 60.6081 18.7976 60.5871 18.7666C60.566 18.7356 60.5378 18.714 60.5024 18.7019C60.4669 18.6891 60.4096 18.6828 60.3305 18.6828H60.0988ZM60.3396 18.9774H60.2076V18.7741H60.3313C60.3845 18.7741 60.4207 18.7779 60.4401 18.7857C60.46 18.7934 60.4755 18.8053 60.4866 18.8214C60.4977 18.8369 60.5032 18.8546 60.5032 18.8745C60.5032 18.9055 60.4916 18.9304 60.4683 18.9492C60.4456 18.968 60.4027 18.9774 60.3396 18.9774Z" fill="#101828"/>
<path fill-rule="evenodd" clip-rule="evenodd" d="M60.6817 18.4653C60.5815 18.4111 60.4788 18.3839 60.3737 18.3839C60.2685 18.3839 60.1658 18.4111 60.0656 18.4653C59.9654 18.519 59.8871 18.5962 59.8306 18.6969C59.7747 18.797 59.7467 18.9016 59.7467 19.0106C59.7467 19.1186 59.7744 19.2223 59.8298 19.3219C59.8851 19.4215 59.9623 19.499 60.0614 19.5544C60.1611 19.6091 60.2652 19.6365 60.3737 19.6365C60.4822 19.6365 60.586 19.6091 60.6851 19.5544C60.7847 19.499 60.8619 19.4215 60.9167 19.3219C60.9721 19.2223 60.9998 19.1186 60.9998 19.0106C60.9998 18.9016 60.9718 18.797 60.9159 18.6969C60.86 18.5962 60.7819 18.519 60.6817 18.4653ZM60.1162 18.5558C60.1998 18.5104 60.2856 18.4877 60.3737 18.4877C60.4611 18.4877 60.5467 18.5104 60.6303 18.5558C60.7138 18.6006 60.7789 18.6651 60.8254 18.7492C60.8725 18.8327 60.896 18.9199 60.896 19.0106C60.896 19.1008 60.873 19.1875 60.8271 19.2705C60.7811 19.3529 60.7166 19.4174 60.6336 19.4639C60.5505 19.5098 60.4639 19.5328 60.3737 19.5328C60.2834 19.5328 60.1968 19.5098 60.1138 19.4639C60.0307 19.4174 59.9659 19.3529 59.9194 19.2705C59.8735 19.1875 59.8505 19.1008 59.8505 19.0106C59.8505 18.9199 59.874 18.8327 59.9211 18.7492C59.9682 18.6651 60.0332 18.6006 60.1162 18.5558Z" fill="#101828"/>
</svg>
